<?xml version="1.0" encoding="UTF-8"?>
<svg overflow="visible" version="1.1" viewBox="0 0 973.7 321" xmlns="http://www.w3.org/2000/svg" xmlns:cc="http://creativecommons.org/ns#" xmlns:dc="http://purl.org/dc/elements/1.1/" xmlns:rdf="http://www.w3.org/1999/02/22-rdf-syntax-ns#">
<metadata>
<rdf:RDF>
<cc:Work rdf:about="">
<dc:format>image/svg+xml</dc:format>
<dc:type rdf:resource="http://purl.org/dc/dcmitype/StillImage"/>
</cc:Work>
</rdf:RDF>
</metadata>
<path d="m196.5 0c1.4002 43.366 0.19981 89.334 0.6 133.7 18.457-20.734 35.034-43.75 54.65-63.075 14.479-0.26475 28.967 0.02049 43.45-0.025-17.967 20.833-35.933 41.667-53.9 62.5 21.7 34.1 43.4 68.2 65.1 102.3h-44.4c-15.667-24.8-31.333-49.6-47-74.4-19.437 11.37-19.187 30.545-17.9 50.061-0.153 12.745 4.4447 30.241-14.355 24.339-12.596 0.16253-28.904 4.0372-22.945-14.355v-211.94c12.233-3.0333 24.467-6.0667 36.7-9.1zm321.6 1.6c13.279-0.080431 3.511 25.111 6.5 36.313 0.52775 53.526-1.1568 107.17 1.0547 160.61 6.7352 18.676 26.79 32.654-5.5547 39.281-34.926 6.7401-33.777-34.453-32.812-58.358-0.02943-56.747-0.05887-113.49-0.0883-170.24 10.3-2.5333 20.6-5.0667 30.9-7.6zm-479.8 9.6c24.683-7.9924 74.266-9.6786 82.204 15.319-5.7245 15.941-7.4699 39.299-27.354 18.813-38.521-25.734-77.978 30.769-30.599 50.585 36.043 16.274 79.03 44.378 69.049 90.682-9.6668 51.961-77.82 63.48-119.12 43.061-23.809-4.2335-2.3201-24.527-0.21513-37.796 15.542 0.46198 79.899 32.571 81.34-15.265-9.0333-46.848-75.777-42.356-89.354-86.989-11.59-30.157 2.7387-67.246 34.054-78.411z" fill="#fff"/>
<path d="m583.5 8.6c48.447-8.7848 25.528 72.766-11.211 39.962-13.36-12.237-6.3888-36.492 11.211-39.962z" fill="#fff"/>
<path d="m686.2 86c31.152-35.83 102.13-17.394 105.34 32.656 2.4713 38.809 0.6269 77.84 1.2578 116.74-12.433 0.0333-24.867 0.0667-37.3 0.1-1.1007-38.821 2.5048-78.104-3.1-116.5-7.5275-30.633-66.938-22.314-62.5 9.3537v107.15h-37.4v-164.8c15.077 1.4267 31.543-7.0347 33.7 15.3zm-382.9-15.4c12.9 0.03333 25.8 0.06667 38.7 0.1 14.568 37.853 28.786 75.847 43.6 113.6 13.067-37.867 26.133-75.733 39.2-113.6h38.7c-24.611 65.751-47.35 132.29-73.188 197.52-9.7812 19.862-62.528 45.981-68.212 21.521-9.5887-31.785 21.506-20.147 39.234-34.835 9.8338-25.751-7.8794-51.918-15.855-76.518-14.06-35.931-28.12-71.862-42.18-107.79zm252.3 0h58.3v164.8h-37.8v-133.2c-15.917 2.9741-24.722-1.186-20.458-18.457-0.01386-4.3811-0.02773-8.7623-0.04159-13.143zm418 66.3c-0.30825-48.537-53.866-81.132-98.352-66.312-68.93 18.353-79.695 130.18-15.325 160.55 26.683 11.281 87.699 12.894 91.961-16.545-6.6679-41.82-49.241 11.704-76.399-15.051-18.622-9.9316-28.318-44.14 1.522-34.846h93.693c1.9061-9.1197 3.6998-18.432 2.9-27.8zm-115.7-0.9c1.4479-42.196 71.092-50.614 77.395-6.6312 1.3555 13.471-24.802 3.6333-35.809 6.6312h-41.587z" fill="#fff"/>
<path d="m433.2 264.1c20.452-5.2071 8.2754 21.825 11.2 33.9 9.538 33.218 32.069-1.1893 24.6-20.607-7.2632-17.134 18.638-17.709 11.893-0.58866-3.0972 14.617 1.6057 49.212 21.507 29.496 7.2083-12.484-8.3466-51.47 14.494-39.649-2.2379 17.671 7.0739 43.33-13.216 52.54-22.341 5.6268-27.939-12.753-45.778 0.70938-27.594 5.074-25.334-27.151-24.7-45.458v-10.342zm255.4 3.6c14.436-6.0551 30.561-2.3544 45.8-3.3 3.9282 24.719-65.02-2.8483-47.619 37.123 10.678 15.608 36.3 3.2055 47.719 10.227 4.0739 16.694-18.968 6.272-28.71 9.1493-29.452 3.1189-47.175-38.82-17.19-53.2zm228.4 3.2c16.812-10.353 37.304-5.2912 56-6.6 11.362 23.458-67.252 1.3709-37.062 22.138 42.566-10.154 47.723 42.201 3.3103 34.662-10.384-2.516-32.805 7.331-28.522-10.25 13.328-3.5552 32.448 2.7872 46.275-4.75-1.5459-13.78-65.966-3.8325-40-35.2zm-91.7-2.6c24.544-10.408 32.534 11.803 52.341-3.7234 27.101-1.6015 23.204 28.864 23.059 47.032 2.622 18.503-19.566 8.0267-11.501-6.9136 9.449-22.038-21.985-48.961-24.399-13.545-3.0745 9.5762 7.5337 32.835-8.203 29.749-8.6716-4.1468-1.2941-24.159-3.497-34.7-14.581-34.652-30.991 11.838-23.379 30.271-9.6824 15.366-16.518-5.8294-12.621-18.129 0.26375-10.382-1.9483-23.354 8.2-30.042zm-268.3 41.3c-31.006-6.9043-10.963-15.31 7.8596-11.653 30.472 10.165 30.099-24.392 3.0336-32.39-43.422-15.491-55.601 58.53-8.8917 55.342 9.8525-3.048 33.274 7.4726 30.499-8.203 0.0209-8.4104-26.482 0.18938-32.5-3.097zm11.7-31.3c18.035 15.102-17.557 6.4368-27.563 8.7-7.066-5.6924 21.594-16.546 27.563-8.7zm93.4 11.5c4.2891-41.146-57.429-8.6101-50.7-40.055-7.0024-14.382-16.231 4.9943-11.573 16.263 0.0243 18.298 0.0485 36.595 0.0728 54.893 18.655-1.9162 40.206 5.2532 56.1-7.1 5.6476-6.5951 6.3835-15.724 6.1-24zm-11.7 4.3c3.4161 18.98-47.088 25.162-38.998 2.8803-13.78-31.262 41.788-29.134 38.998-2.8803zm156.4-3c9.9676-36.74-80.273-32.161-55.948-15.28 14.614 2.3347 38.702-6.7494 44.548 11.28-23.115-9.2953-76.05 15.53-34.15 32.362 14.971 2.9282 30.298 1.1538 45.45 1.6375 0.29999-9.9983 1e-5 -20 0.1-30zm-25.7 18.6c-29.154 5.2906-27.552-17.167 0.10295-11.7 18.405-6.6277 22.005 18.176-0.10295 11.7z" fill="#fff"/>
</svg>
