<svg xmlns="http://www.w3.org/2000/svg" viewBox="0 0 152.7 19.5" fill="#fff"><path d="M90.366 19.3V-.093h8.53c2.225 0 3.708 0 4.82.352s1.854 1.057 2.225 1.762c.742.705.742 1.762.742 3.172s-.37 2.82-1.483 3.524c-.742 1.057-2.225 1.4-4.08 1.762.742.705.742 1.057 1.483 1.762.37.705 1.113 1.762 2.225 3.172l2.596 3.877h-4.08l-2.967-4.23-2.225-2.82c-.37-.352-.742-.705-1.113-.705s-1.113-.352-2.225-.352h-.37v8.106h-4.08zm4.08-11.278h2.967c1.854 0 3.338 0 3.708-.352.37 0 .742-.352 1.113-.705s.37-.705.37-1.4 0-1.057-.37-1.762c-.37-.352-.742-.705-1.483-.705h-6.304v4.934zm35.6 11.278h-4.45l-1.854-4.582h-8.16l-1.854 4.582h-4.45l7.788-19.385h4.45l8.53 19.385zm-7.417-7.4l-2.967-7.05-2.596 7.05h5.563zm14.463 7.4v-8.106L129.675-.093h4.82l4.82 7.754 4.82-7.754h4.82l-7.417 11.278v8.106h-4.45zM85.2 1.1zm.8 1.2l-2.8 2.8v9.4l-1 1H70.8l-1-1V5.1l1-1h11.3L85.2 1c-.6-.7-1.3-1-2.1-1H69.6c-5.8 0-5.8 19.4 0 19.4h13.6c4.6 0 5.2-11.9 2.8-17.1zM58.2 0h4.4v3.6h-4.4zm0 4.9h4.4v14.6h-4.4zM37.3 0h17.5v4.1h-16l-.5.5v2.7l.5.5h14c3.7 0 4.3 11.6 0 11.6H34.5v-3.9h16.1l.6-.6v-2.6l-.6-.6H37.2C32.6 11.6 32 0 37.3 0zM27 0h4.4v3.6H27zm0 4.9h4.4v14.6H27zM19.9 0l-6.7 13.8H12L5.2 0H0l10 19.4h5.1L25.2 0h-5.3z"/><path d="M149.3 12.9c.5 0 1.1.1 1.6.4s.9.7 1.2 1.2.4 1.1.4 1.6c0 .6-.1 1.1-.4 1.6s-.7.9-1.2 1.2-1 .4-1.6.4-1.1-.1-1.6-.4-.9-.7-1.2-1.2-.4-1-.4-1.6.1-1.1.4-1.6.7-.9 1.2-1.2c.6-.3 1.1-.4 1.6-.4zm0 .5c-.5 0-.9.1-1.3.3a2.41 2.41 0 0 0-1 1c-.2.4-.4.9-.4 1.4s.1.9.4 1.3a2.41 2.41 0 0 0 1 1c.4.2.9.4 1.3.4.5 0 .9-.1 1.3-.4a2.41 2.41 0 0 0 1-1c.2-.4.4-.9.4-1.3 0-.5-.1-.9-.4-1.4a2.41 2.41 0 0 0-1-1c-.4-.2-.8-.3-1.3-.3zm-1.4 4.5v-3.5h1.2c.4 0 .7 0 .9.1a1.38 1.38 0 0 1 .4.3c.1.2.2.3.2.5 0 .3-.1.5-.3.7s-.4.3-.7.3c.1.1.2.1.3.2s.3.4.5.7l.4.7h-.7l-.3-.5c-.2-.4-.4-.7-.6-.8-.1-.1-.3-.1-.4-.1h-.3V18h-.6zm.6-2h.7c.3 0 .5 0 .7-.1.1-.1.2-.2.2-.4 0-.1 0-.2-.1-.3l-.2-.2c-.1 0-.3-.1-.6-.1h-.6v1.1z" enable-background="new"/></svg>