<svg xmlns="http://www.w3.org/2000/svg" id="Livello_1" width="375.61" height="60" viewBox="0 0 375.61 59.7"><defs><style>.cls-2{fill:#ff860d}.cls-3{fill:#05519c}</style></defs><path d="M269.03 37.11h.04v9.41l3.66-4.33c.09-.14.27-.1.42-.11h2.83l-3.79 4.4 4.58 7.2h-3.12l-3.31-5.23c-.43.44-.83.91-1.26 1.36v3.88h-2.62V37.77l2.58-.64Zm22.62.11c.15-.04.3-.04.46-.04v11.89c.02.89-.08 1.81.25 2.65.17.44.52.82.98.97-.28.61-.88 1.05-1.55 1.15-.58.1-1.27.05-1.7-.41-.53-.56-.59-1.38-.61-2.11V37.76l2.17-.53Zm-33.75.68c.82-.32 1.71-.4 2.57-.33 1.17.04 2.41.26 3.35 1l-.83 2.42c-.2-.12-.4-.25-.61-.38-.81-.46-1.75-.72-2.69-.67-.38.03-.76.14-1.06.37-.56.43-.79 1.22-.59 1.89.2.58.68 1.01 1.15 1.37 1.03.79 2.29 1.23 3.35 2 .42.3.81.65 1.1 1.08.75 1.02.98 2.35.8 3.59-.15 1.04-.77 1.97-1.61 2.59-1.09.83-2.5 1.11-3.84 1.09-1.34 0-2.69-.39-3.81-1.15v-.02l1.01-2.5c.95.65 2.04 1.17 3.22 1.17.65-.01 1.35-.08 1.86-.51.4-.32.54-.87.5-1.37-.05-.74-.48-1.41-1.05-1.87-1.23-1.01-2.79-1.51-4.03-2.5-1.29-1.05-1.72-2.89-1.34-4.47.32-1.26 1.32-2.31 2.53-2.79Z" class="cls-3"/><path d="M296.35 37.56c.46-.11.96-.03 1.35.25.4.29.68.75.71 1.25.05.52-.17 1.06-.57 1.39-.37.34-.89.47-1.38.39-.46-.07-.87-.35-1.12-.73-.37-.53-.37-1.29-.01-1.83.23-.34.6-.63 1.02-.72Z" class="cls-2"/><path d="M303.48 43.16c.59-.7 1.46-1.13 2.36-1.24 1.32-.18 2.78.06 3.78 1 .96.88 1.34 2.22 1.35 3.5v7.25h-2.62v-6.01c0-.73.01-1.48-.22-2.19-.15-.5-.5-.94-.99-1.14-.65-.25-1.41-.29-2.05-.02-.45.18-.88.44-1.21.81-.07.08-.15.17-.14.29v8.26h-2.63V42.08h1.88c.18.34.33.71.49 1.08Zm-26.94-1.09h2.72l2.73 7.15c.11.28.2.58.34.85l2.76-7.99h2.72l-4.78 13.06c-.2.57-.47 1.13-.91 1.55-1.13 1.08-2.72 1.52-4.25 1.52v-2.39c.68-.01 1.38-.04 2.03-.29.37-.14.72-.37.89-.75.16-.34.11-.73.06-1.1-.14-.88-.45-1.72-.76-2.55l-3.55-9.06Zm17.75 0h4.1v11.59h-2.66v-9.37h-1.44v-2.22Zm29.41 4.67c-.07-1.13-.47-2.25-1.22-3.11a4.847 4.847 0 0 0-2.69-1.61c-1.31-.28-2.74-.2-3.94.43-1.24.66-2.24 1.78-2.72 3.1-.45 1.26-.49 2.64-.27 3.95.22 1.32.9 2.6 2.01 3.38 1.07.79 2.44 1.05 3.74 1 1.34-.04 2.76-.28 3.83-1.15-.34-.68-.66-1.38-1.02-2.05-.59.55-1.38.87-2.18.91-.94.1-1.97-.03-2.72-.64-.68-.53-1-1.4-1.04-2.24h8.03c.13-.64.26-1.29.2-1.96Zm-8.14-.07c.17-.75.47-1.52 1.09-2.01.56-.45 1.31-.58 2.01-.52.65.04 1.32.27 1.75.79.42.48.59 1.13.67 1.74h-5.52Z" class="cls-3"/><path d="M285.68 55.69h.82l-.04 2.38c0 .37.16.77.51.94.32.15.74.08.97-.2.18-.2.25-.48.25-.75v-2.35h.84l-.02 2.42c0 .38.18.8.57.93.37.13.78-.07.96-.41.16-.28.13-.63.13-.94v-2c.3-.01.6 0 .89 0v2.35c0 .49-.14 1.03-.57 1.32-.46.3-1.02.26-1.53.25-.41-.02-.73-.32-.89-.68-.15.22-.3.46-.54.57-.18.11-.41.07-.62.08-.23 0-.47.01-.7 0-.39-.07-.72-.37-.88-.72-.13-.27-.15-.59-.15-.89v-2.31Zm17.97.25c.35-.19.76-.25 1.15-.24h2.07v.79c-.76.03-1.52 0-2.28.02-.53.01-1.02.36-1.22.84-.16.44.03.94.37 1.22.27.24.63.32.98.32h2.15v.79h-2.38c-.44-.08-.88-.22-1.21-.51-.44-.37-.77-.93-.75-1.53 0-.72.48-1.38 1.1-1.7Zm16.07.23c.46-.34 1.06-.44 1.62-.46h2.32v.77c-.75 0-1.51-.01-2.26 0-.32.02-.69.03-.94.25-.13.1-.07.28.06.36.32.22.72.2 1.1.22.56.01 1.15.11 1.63.43.26.17.47.45.46.77 0 .32-.22.6-.48.77-.44.31-.99.37-1.51.44h-2.42l-.02-.79h2.35c.31-.03.66-.05.91-.27.11-.08.08-.25-.03-.32-.3-.22-.68-.23-1.03-.23-.57 0-1.17-.08-1.65-.39-.25-.16-.49-.42-.51-.74-.04-.32.15-.62.4-.79Zm-6.45-.19c.46-.27 1.02-.24 1.53-.22.41.01.72.32.87.68.17-.35.48-.65.88-.7.51-.06 1.11-.06 1.53.31.36.3.49.79.49 1.24v2.4h-.82l.03-2.32c0-.32-.08-.68-.35-.88-.33-.28-.88-.23-1.15.11-.2.23-.24.54-.23.84v2.24h-.85l.03-2.44c.02-.44-.3-.93-.77-.94-.49-.04-.86.42-.87.88-.02.83 0 1.67 0 2.5h-.89v-2.45c0-.48.16-.99.58-1.25Zm-18.88 2.91c-.54 0-1.15-.26-1.32-.82h3.57c.25-1.15-.77-2.29-1.89-2.36-.98-.13-2.03.46-2.36 1.39-.25.72 0 1.56.58 2.03.35.32.82.45 1.27.54h2.43v-.79h-2.29Zm.82-2.2c.25.13.4.37.51.61h-2.62c.38-.74 1.39-1.01 2.11-.61Zm6.57.81c-.02-.63-.37-1.23-.92-1.53-.42-.25-.92-.28-1.4-.27h-1.25v-1.31h-.82v5.3h2.79c.42-.07.88-.16 1.17-.5.39-.46.45-1.1.43-1.69Zm-.82.3c-.01.32-.08.67-.33.89-.2.18-.49.22-.75.22h-1.67c0-.81-.01-1.61.01-2.41.53 0 1.06-.01 1.58 0 .31 0 .65.06.87.3.25.26.29.65.28 1Zm11-.21c0-.44-.04-.92-.36-1.25-.46-.49-1.17-.63-1.81-.63-.74 0-1.48-.02-2.22 0 0 .26 0 .53.01.79h2.2c.39.02.82.03 1.15.28.15.13.18.33.22.51-.89.03-1.8-.09-2.65.2-.34.11-.69.29-.85.62-.19.41.01.91.37 1.16.44.32 1 .34 1.52.42h2.41c.02-.7 0-1.41 0-2.11Zm-1.8 1.31c-.46 0-.93.03-1.37-.09-.15-.05-.34-.13-.37-.32-.03-.15.11-.25.24-.3.3-.11.62-.12.93-.12h1.58v.81c-.34.02-.68 0-1.01.01Z" class="cls-2"/><path d="M13.56 28.92c-1.93 0-3.73-.32-5.38-.95s-3.09-1.53-4.31-2.7a12.512 12.512 0 0 1-2.84-4.11C.35 19.59.01 17.86.01 15.97s.34-3.61 1.02-5.19c.68-1.57 1.63-2.94 2.86-4.11C5.12 5.5 6.55 4.6 8.2 3.97c1.65-.63 3.45-.95 5.4-.95 2.17 0 4.13.38 5.88 1.13S22.7 6 23.9 7.46l-3.72 3.43c-.86-.98-1.81-1.71-2.86-2.2s-2.19-.73-3.43-.73c-1.17 0-2.24.19-3.22.57-.98.38-1.82.93-2.54 1.65s-1.27 1.56-1.66 2.54c-.39.98-.59 2.06-.59 3.25s.2 2.28.59 3.25c.39.98.95 1.82 1.66 2.54s1.56 1.26 2.54 1.65c.98.38 2.05.57 3.22.57 1.24 0 2.38-.24 3.43-.73 1.05-.49 2-1.23 2.86-2.24l3.72 3.43c-1.19 1.45-2.66 2.56-4.42 3.33s-3.73 1.14-5.92 1.14ZM35.87 28.77c-2.05 0-3.87-.43-5.45-1.29-1.59-.86-2.84-2.03-3.76-3.52-.92-1.49-1.38-3.19-1.38-5.1s.46-3.64 1.38-5.13c.92-1.49 2.17-2.66 3.76-3.51 1.59-.85 3.4-1.27 5.45-1.27s3.84.42 5.44 1.27c1.6.85 2.85 2.01 3.76 3.49.91 1.48 1.36 3.2 1.36 5.15s-.45 3.61-1.36 5.1c-.91 1.49-2.16 2.66-3.76 3.52-1.6.86-3.41 1.29-5.44 1.29Zm0-4.57c.93 0 1.76-.21 2.5-.64.74-.43 1.32-1.04 1.75-1.84.43-.8.64-1.75.64-2.84s-.21-2.07-.64-2.86c-.43-.79-1.01-1.4-1.75-1.82-.74-.43-1.57-.64-2.5-.64s-1.77.21-2.5.64c-.74.43-1.33 1.04-1.77 1.82-.44.79-.66 1.74-.66 2.86s.22 2.04.66 2.84c.44.8 1.03 1.41 1.77 1.84.74.43 1.57.64 2.5.64ZM61.84 8.96c1.53 0 2.89.3 4.1.91s2.15 1.54 2.84 2.79 1.04 2.86 1.04 4.81v11.02h-5.58V18.33c0-1.55-.34-2.69-1.02-3.43-.68-.74-1.64-1.11-2.88-1.11-.88 0-1.68.18-2.38.55-.7.37-1.25.94-1.65 1.7-.39.76-.59 1.74-.59 2.93v9.51h-5.58V9.25h5.33v5.33l-1-1.61A7.09 7.09 0 0 1 57.44 10c1.29-.69 2.75-1.04 4.4-1.04ZM81.33 28.77c-1.65 0-3.23-.2-4.74-.59-1.51-.39-2.71-.89-3.59-1.48l1.86-4.01c.88.55 1.93 1 3.13 1.34 1.2.35 2.39.52 3.56.52 1.29 0 2.2-.15 2.74-.47.54-.31.8-.74.8-1.29 0-.45-.21-.79-.63-1.02-.42-.23-.97-.4-1.66-.52s-1.45-.24-2.27-.36c-.82-.12-1.65-.28-2.49-.48-.83-.2-1.6-.51-2.29-.91s-1.25-.95-1.66-1.65c-.42-.69-.63-1.59-.63-2.68 0-1.22.35-2.29 1.06-3.22.7-.93 1.72-1.66 3.06-2.2 1.33-.54 2.93-.8 4.79-.8 1.31 0 2.65.14 4.01.43 1.36.29 2.49.7 3.4 1.25l-1.86 3.97c-.93-.55-1.87-.92-2.81-1.13-.94-.2-1.85-.3-2.74-.3-1.24 0-2.15.17-2.72.5-.57.33-.86.76-.86 1.29 0 .48.21.83.63 1.07.42.24.97.43 1.66.57.69.14 1.45.27 2.27.38.82.11 1.65.27 2.49.48.83.21 1.59.52 2.27.91.68.39 1.23.93 1.66 1.61.43.68.64 1.57.64 2.66 0 1.19-.36 2.25-1.07 3.17-.72.92-1.75 1.64-3.09 2.16-1.35.52-2.99.79-4.92.79ZM91.56 13.97V9.68h13.34v4.29H91.56Zm10.16 14.8c-2.27 0-4.03-.58-5.29-1.73-1.26-1.16-1.9-2.88-1.9-5.17V4.99h5.58V21.8c0 .81.21 1.44.64 1.88.43.44 1.01.66 1.75.66.88 0 1.63-.24 2.25-.72l1.5 3.93c-.57.41-1.26.71-2.06.91-.8.2-1.63.3-2.49.3ZM109.41 28.49V9.25h5.33v5.44l-.75-1.57c.57-1.36 1.49-2.39 2.75-3.09 1.26-.7 2.8-1.06 4.61-1.06v5.15c-.24-.02-.45-.04-.64-.05-.19-.01-.39-.02-.61-.02-1.53 0-2.76.44-3.7 1.31-.94.87-1.41 2.22-1.41 4.06v9.08h-5.58ZM132.94 28.77c-1.6 0-3.02-.31-4.27-.93-1.25-.62-2.22-1.57-2.92-2.84-.69-1.28-1.04-2.9-1.04-4.88V9.25h5.58V19.3c0 1.6.34 2.77 1.02 3.52.68.75 1.64 1.13 2.88 1.13.86 0 1.62-.18 2.29-.55.67-.37 1.19-.94 1.57-1.72.38-.77.57-1.75.57-2.92V9.25h5.58v19.24h-5.29V23.2l.97 1.54c-.64 1.34-1.59 2.34-2.84 3.02-1.25.68-2.62 1.02-4.1 1.02ZM158.69 28.77c-2.07 0-3.92-.42-5.54-1.27-1.62-.85-2.89-2.02-3.81-3.52-.92-1.5-1.38-3.21-1.38-5.11s.46-3.64 1.38-5.13c.92-1.49 2.19-2.66 3.81-3.51 1.62-.85 3.47-1.27 5.54-1.27s3.79.42 5.29 1.27c1.5.85 2.61 2.06 3.33 3.63l-4.33 2.32c-.5-.91-1.13-1.57-1.88-2s-1.57-.64-2.45-.64c-.95 0-1.81.21-2.57.64-.76.43-1.37 1.04-1.81 1.82-.44.79-.66 1.74-.66 2.86s.22 2.07.66 2.86c.44.79 1.04 1.4 1.81 1.82.76.43 1.62.64 2.57.64.88 0 1.7-.21 2.45-.63.75-.42 1.38-1.09 1.88-2.02l4.33 2.36c-.72 1.55-1.82 2.75-3.33 3.59-1.5.85-3.27 1.27-5.29 1.27ZM168.53 13.97V9.68h13.34v4.29h-13.34Zm10.16 14.8c-2.27 0-4.03-.58-5.29-1.73-1.26-1.16-1.9-2.88-1.9-5.17V4.99h5.58V21.8c0 .81.21 1.44.64 1.88.43.44 1.01.66 1.75.66.88 0 1.63-.24 2.25-.72l1.5 3.93c-.57.41-1.26.71-2.06.91-.8.2-1.63.3-2.49.3ZM186.38 28.49V9.25h5.58v19.24h-5.58ZM206.3 28.77c-2.05 0-3.87-.43-5.45-1.29-1.59-.86-2.84-2.03-3.76-3.52-.92-1.49-1.38-3.19-1.38-5.1s.46-3.64 1.38-5.13 2.17-2.66 3.76-3.51c1.58-.85 3.4-1.27 5.45-1.27s3.84.42 5.44 1.27c1.6.85 2.85 2.01 3.75 3.49.91 1.48 1.36 3.2 1.36 5.15s-.45 3.61-1.36 5.1c-.91 1.49-2.16 2.66-3.75 3.52-1.6.86-3.41 1.29-5.44 1.29Zm0-4.57c.93 0 1.76-.21 2.5-.64.74-.43 1.32-1.04 1.75-1.84.43-.8.64-1.75.64-2.84s-.21-2.07-.64-2.86c-.43-.79-1.01-1.4-1.75-1.82-.74-.43-1.57-.64-2.5-.64s-1.76.21-2.5.64-1.33 1.04-1.77 1.82c-.44.79-.66 1.74-.66 2.86s.22 2.04.66 2.84c.44.8 1.03 1.41 1.77 1.84s1.57.64 2.5.64ZM232.26 8.96c1.53 0 2.89.3 4.1.91 1.2.61 2.15 1.54 2.84 2.79s1.04 2.86 1.04 4.81v11.02h-5.58V18.33c0-1.55-.34-2.69-1.02-3.43-.68-.74-1.64-1.11-2.88-1.11-.88 0-1.68.18-2.38.55-.7.37-1.25.94-1.64 1.7-.39.76-.59 1.74-.59 2.93v9.51h-5.58V9.25h5.33v5.33l-1-1.61a7.09 7.09 0 0 1 2.97-2.97c1.29-.69 2.75-1.04 4.4-1.04ZM251.76 28.77c-1.65 0-3.22-.2-4.74-.59-1.51-.39-2.71-.89-3.59-1.48l1.86-4.01c.88.55 1.92 1 3.13 1.34 1.2.35 2.39.52 3.56.52 1.29 0 2.2-.15 2.74-.47.54-.31.8-.74.8-1.29 0-.45-.21-.79-.63-1.02-.42-.23-.97-.4-1.66-.52s-1.45-.24-2.27-.36c-.82-.12-1.65-.28-2.49-.48-.83-.2-1.6-.51-2.29-.91s-1.25-.95-1.66-1.65c-.42-.69-.63-1.59-.63-2.68 0-1.22.35-2.29 1.05-3.22.7-.93 1.72-1.66 3.06-2.2 1.34-.54 2.93-.8 4.79-.8 1.31 0 2.65.14 4.01.43s2.49.7 3.4 1.25l-1.86 3.97c-.93-.55-1.87-.92-2.81-1.13-.94-.2-1.85-.3-2.74-.3-1.24 0-2.15.17-2.72.5-.57.33-.86.76-.86 1.29 0 .48.21.83.63 1.07.42.24.97.43 1.66.57.69.14 1.45.27 2.27.38.82.11 1.65.27 2.49.48.83.21 1.59.52 2.27.91.68.39 1.23.93 1.66 1.61.43.68.64 1.57.64 2.66 0 1.19-.36 2.25-1.07 3.17-.72.92-1.75 1.64-3.09 2.16-1.35.52-2.99.79-4.92.79ZM286.77 28.92c-1.93 0-3.73-.32-5.38-.95s-3.09-1.53-4.31-2.7c-1.22-1.17-2.16-2.54-2.84-4.11s-1.02-3.3-1.02-5.19.34-3.61 1.02-5.19 1.63-2.94 2.86-4.11c1.23-1.17 2.67-2.07 4.31-2.7 1.65-.63 3.45-.95 5.4-.95 2.17 0 4.13.38 5.88 1.13 1.75.75 3.22 1.85 4.42 3.31l-3.72 3.43c-.86-.98-1.81-1.71-2.86-2.2-1.05-.49-2.19-.73-3.43-.73-1.17 0-2.24.19-3.22.57-.98.38-1.82.93-2.54 1.65a7.56 7.56 0 0 0-1.66 2.54c-.39.98-.59 2.06-.59 3.25s.2 2.28.59 3.25c.39.98.95 1.82 1.66 2.54.72.72 1.56 1.26 2.54 1.65s2.05.57 3.22.57c1.24 0 2.38-.24 3.43-.73 1.05-.49 2-1.23 2.86-2.24l3.72 3.43c-1.19 1.45-2.67 2.56-4.42 3.33-1.75.76-3.73 1.14-5.92 1.14ZM306.41 28.77c-1.5 0-2.79-.26-3.86-.77-1.07-.51-1.9-1.21-2.47-2.09-.57-.88-.86-1.87-.86-2.97s.28-2.15.84-3c.56-.86 1.45-1.53 2.66-2.02 1.22-.49 2.8-.73 4.76-.73h5.12v3.25h-4.51c-1.31 0-2.21.21-2.7.64-.49.43-.73.97-.73 1.61 0 .72.28 1.28.84 1.7.56.42 1.33.63 2.31.63s1.76-.22 2.5-.66c.74-.44 1.28-1.09 1.61-1.95l.86 2.58c-.41 1.24-1.14 2.18-2.22 2.83-1.07.64-2.46.97-4.15.97Zm5.86-.28v-3.76l-.36-.82v-6.72c0-1.19-.36-2.12-1.09-2.79-.73-.67-1.84-1-3.34-1-1.03 0-2.03.16-3.02.48-.99.32-1.83.76-2.52 1.31l-2-3.9c1.05-.74 2.31-1.31 3.79-1.72 1.48-.41 2.98-.61 4.51-.61 2.93 0 5.21.69 6.83 2.07s2.43 3.54 2.43 6.47v10.98h-5.22ZM347.18 8.96c1.53 0 2.88.3 4.06.91 1.18.61 2.11 1.54 2.79 2.79.68 1.25 1.02 2.86 1.02 4.81v11.02h-5.58V18.33c0-1.55-.32-2.69-.97-3.43-.64-.74-1.55-1.11-2.72-1.11-.81 0-1.54.18-2.18.55-.64.37-1.14.92-1.5 1.66-.36.74-.54 1.68-.54 2.83v9.66h-5.58V18.33c0-1.55-.32-2.69-.95-3.43-.63-.74-1.53-1.11-2.7-1.11-.81 0-1.54.18-2.18.55-.64.37-1.14.92-1.5 1.66-.36.74-.54 1.68-.54 2.83v9.66h-5.58V9.25h5.33v5.26l-1-1.54c.67-1.31 1.61-2.31 2.84-2.99 1.23-.68 2.63-1.02 4.2-1.02 1.76 0 3.31.45 4.63 1.34 1.32.89 2.2 2.26 2.63 4.1l-1.97-.54c.64-1.5 1.67-2.69 3.09-3.58 1.42-.88 3.05-1.32 4.88-1.32ZM366.53 28.77c-1.65 0-3.22-.2-4.74-.59-1.51-.39-2.71-.89-3.59-1.48l1.86-4.01c.88.55 1.92 1 3.13 1.34 1.2.35 2.39.52 3.56.52 1.29 0 2.2-.15 2.74-.47.54-.31.8-.74.8-1.29 0-.45-.21-.79-.63-1.02-.42-.23-.97-.4-1.66-.52s-1.45-.24-2.27-.36c-.82-.12-1.65-.28-2.49-.48-.83-.2-1.6-.51-2.29-.91s-1.25-.95-1.66-1.65c-.42-.69-.63-1.59-.63-2.68 0-1.22.35-2.29 1.05-3.22.7-.93 1.72-1.66 3.06-2.2 1.34-.54 2.93-.8 4.79-.8 1.31 0 2.65.14 4.01.43s2.49.7 3.4 1.25l-1.86 3.97c-.93-.55-1.87-.92-2.81-1.13-.94-.2-1.85-.3-2.74-.3-1.24 0-2.15.17-2.72.5-.57.33-.86.76-.86 1.29 0 .48.21.83.63 1.07.42.24.97.43 1.66.57.69.14 1.45.27 2.27.38.82.11 1.65.27 2.49.48.83.21 1.59.52 2.27.91.68.39 1.23.93 1.66 1.61.43.68.64 1.57.64 2.66 0 1.19-.36 2.25-1.07 3.17-.72.92-1.75 1.64-3.09 2.16-1.35.52-2.99.79-4.92.79Z" class="cls-3"/><path id="Build._Record._Share." d="M61.39 46.4c-.13-.06-.28-.08-.42-.12.54-.28.99-.65 1.31-1.13.35-.52.52-1.14.52-1.85 0-1.06-.43-1.91-1.29-2.55-.86-.64-2.14-.97-3.84-.97h-6.61v13.54h7c1.78 0 3.13-.33 4.04-.98.92-.65 1.37-1.56 1.37-2.72 0-.79-.18-1.45-.55-1.99s-.88-.95-1.54-1.23Zm-7.21-4.27h3.11c.76 0 1.34.13 1.75.4.41.26.61.66.61 1.19s-.2.94-.61 1.21c-.41.26-.99.4-1.75.4h-3.11v-3.19Zm5.5 8.43c-.42.26-1.03.4-1.85.4h-3.65v-3.35h3.65c.81 0 1.43.14 1.85.42.42.28.63.7.63 1.27s-.21 1-.63 1.27Zm13.05-2.51c0 .63-.1 1.16-.31 1.58-.21.42-.49.73-.85.93-.36.2-.77.3-1.24.3-.67 0-1.19-.2-1.56-.61s-.55-1.04-.55-1.91V42.9H65.2v5.88c0 1.07.19 1.95.56 2.64.37.69.9 1.2 1.58 1.54.68.34 1.45.5 2.31.5.8 0 1.54-.18 2.21-.55.4-.22.73-.5 1.02-.84v1.23h2.86V42.89h-3.02v5.15Zm6.94-9.96c-.55 0-1.01.16-1.35.48-.35.32-.52.72-.52 1.2s.17.88.52 1.2c.35.32.8.48 1.35.48s1.02-.16 1.36-.49c.34-.33.51-.74.51-1.25 0-.48-.17-.87-.52-1.17-.35-.3-.8-.45-1.35-.45Zm-1.51 15.22h3.02V42.9h-3.02v10.41Zm5.43 0h3.02V38.96h-3.02v14.35ZM96.61 44c-.24-.26-.51-.49-.81-.67-.66-.39-1.42-.58-2.3-.58-.98 0-1.86.22-2.65.66-.79.44-1.41 1.06-1.87 1.86-.46.8-.69 1.75-.69 2.84s.23 2.02.69 2.82c.46.8 1.08 1.42 1.87 1.87.79.44 1.67.67 2.65.67.92 0 1.7-.19 2.35-.58.34-.2.64-.47.9-.78v1.21h2.88V38.97h-3.02v5.04Zm-.3 5.65c-.24.43-.56.76-.96 1-.4.23-.84.35-1.33.35s-.95-.12-1.35-.35c-.4-.23-.72-.56-.96-1-.24-.43-.36-.94-.36-1.54s.12-1.12.36-1.55c.24-.43.56-.75.96-.99.4-.23.85-.35 1.35-.35s.93.12 1.33.35c.4.23.72.56.96.99.24.43.36.94.36 1.55s-.12 1.11-.36 1.54Zm6.85.06c-.52 0-.96.17-1.32.51-.37.34-.55.79-.55 1.34s.18 1.01.55 1.36c.37.35.81.53 1.32.53s.97-.18 1.33-.53c.36-.35.54-.81.54-1.36s-.18-1-.54-1.34c-.36-.34-.81-.51-1.33-.51Zm17.83-.75c.88-.39 1.55-.94 2.03-1.67.48-.73.72-1.6.72-2.6s-.24-1.9-.72-2.63-1.15-1.3-2.03-1.69c-.88-.39-1.92-.59-3.13-.59H112v13.54h3.13v-3.77H118l2.6 3.78h3.38l-3.02-4.34s.02 0 .03-.01Zm-1.14-2.54c-.48.42-1.2.63-2.17.63h-2.55v-4.72h2.55c.97 0 1.69.21 2.17.62.48.41.72.99.72 1.74s-.24 1.31-.72 1.73Zm13.3-3.02c-.82-.43-1.74-.65-2.76-.65s-2 .23-2.84.69c-.84.46-1.5 1.09-1.98 1.9-.48.81-.73 1.73-.73 2.78s.24 1.95.73 2.76c.49.81 1.18 1.44 2.08 1.91.9.46 1.94.7 3.12.7.94 0 1.77-.15 2.49-.44a4.74 4.74 0 0 0 1.8-1.25l-1.61-1.74c-.35.34-.73.59-1.15.75-.42.17-.91.25-1.46.25-.62 0-1.16-.11-1.61-.34-.46-.23-.81-.55-1.06-.99-.14-.23-.23-.49-.29-.76h7.86c.01-.13.03-.27.04-.42.01-.15.02-.28.02-.4 0-1.12-.24-2.09-.72-2.89a4.887 4.887 0 0 0-1.94-1.86Zm-5.29 3.8c.05-.32.13-.62.27-.88.22-.41.53-.72.92-.95.39-.23.85-.34 1.36-.34s.97.11 1.35.34c.39.23.69.54.91.94.14.26.22.57.27.89h-5.09Zm13.19-1.62c.41-.23.88-.35 1.39-.35.48 0 .92.12 1.32.35.41.23.74.59 1.02 1.08l2.34-1.26a4.18 4.18 0 0 0-1.8-1.96c-.81-.46-1.77-.69-2.86-.69s-2.12.23-3 .69a5.18 5.18 0 0 0-2.06 1.9c-.5.81-.74 1.73-.74 2.78s.25 1.95.74 2.77c.5.81 1.18 1.45 2.06 1.91.88.46 1.88.69 3 .69s2.05-.23 2.86-.69c.81-.46 1.41-1.11 1.8-1.94l-2.34-1.28c-.27.5-.61.87-1.02 1.09-.41.23-.85.34-1.32.34-.52 0-.98-.12-1.39-.35-.41-.23-.74-.56-.98-.99-.24-.43-.36-.94-.36-1.55s.12-1.12.36-1.55c.24-.43.56-.75.98-.99Zm15.18-2.14c-.86-.46-1.84-.69-2.94-.69s-2.09.23-2.95.69c-.86.46-1.53 1.09-2.03 1.9-.5.81-.74 1.73-.74 2.78s.25 1.95.74 2.76c.5.81 1.17 1.44 2.03 1.91.86.46 1.84.7 2.95.7s2.08-.23 2.94-.7c.86-.46 1.54-1.1 2.03-1.91.49-.81.73-1.72.73-2.76s-.24-1.99-.73-2.79-1.17-1.43-2.03-1.89Zm-.64 6.21c-.23.43-.55.76-.95 1-.4.23-.85.35-1.35.35s-.95-.12-1.35-.35c-.4-.23-.72-.56-.96-1-.24-.43-.36-.94-.36-1.54s.12-1.12.36-1.55c.24-.43.56-.75.96-.99.4-.23.85-.35 1.35-.35s.95.12 1.35.35c.4.23.72.56.95.99s.35.94.35 1.55-.12 1.11-.35 1.54Zm7.91-5.36v-1.38h-2.88v10.41h3.02v-4.91c0-.99.25-1.72.76-2.2.51-.47 1.18-.71 2-.71h.33c.1 0 .22.02.35.03v-2.79c-.98 0-1.81.19-2.49.57-.44.25-.8.57-1.08.97Zm12.47-.29c-.24-.26-.51-.49-.81-.67-.66-.39-1.42-.58-2.3-.58-.98 0-1.86.22-2.65.66-.79.44-1.41 1.06-1.87 1.86-.46.8-.69 1.75-.69 2.84s.23 2.02.69 2.82c.46.8 1.08 1.42 1.87 1.87.79.44 1.67.67 2.65.67.92 0 1.7-.19 2.35-.58.34-.2.64-.47.9-.78v1.21h2.88V38.97h-3.02v5.04Zm-.3 5.65c-.24.43-.56.76-.96 1-.4.23-.84.35-1.33.35s-.95-.12-1.35-.35c-.4-.23-.72-.56-.96-1-.24-.43-.36-.94-.36-1.54s.12-1.12.36-1.55c.24-.43.56-.75.96-.99.4-.23.85-.35 1.35-.35s.93.12 1.33.35c.4.23.72.56.96.99.24.43.36.94.36 1.55s-.12 1.11-.36 1.54Zm6.86.06c-.52 0-.96.17-1.32.51-.37.34-.55.79-.55 1.34s.18 1.01.55 1.36c.37.35.81.53 1.32.53s.97-.18 1.33-.53c.36-.35.54-.81.54-1.36s-.18-1-.54-1.34c-.36-.34-.81-.51-1.33-.51Zm17.46-3.25c-.46-.28-.98-.51-1.54-.68-.56-.17-1.12-.32-1.68-.44-.56-.13-1.07-.26-1.54-.39-.46-.13-.84-.3-1.12-.51-.28-.21-.43-.49-.43-.84 0-.3.08-.56.25-.78.17-.23.44-.41.83-.55.39-.14.88-.21 1.49-.21s1.22.09 1.86.26c.63.17 1.26.44 1.9.8l.97-2.38c-.63-.4-1.36-.7-2.19-.9-.83-.2-1.66-.3-2.51-.3-1.28 0-2.34.19-3.18.57-.84.38-1.48.89-1.9 1.53-.42.64-.63 1.34-.63 2.12 0 .72.15 1.32.44 1.78.29.46.67.84 1.13 1.12.46.28.98.52 1.54.7.56.18 1.12.33 1.68.45.56.12 1.07.25 1.54.39.46.14.84.31 1.12.52.28.21.43.5.43.86 0 .28-.09.54-.27.75-.18.22-.46.39-.84.51-.38.12-.88.18-1.5.18-.81 0-1.61-.13-2.41-.4-.79-.26-1.48-.6-2.06-1.02l-1.06 2.36c.61.46 1.41.84 2.4 1.13.99.29 2.03.44 3.11.44 1.29 0 2.36-.19 3.2-.58.84-.39 1.48-.9 1.9-1.53.43-.63.64-1.33.64-2.09 0-.71-.15-1.3-.44-1.76s-.67-.84-1.13-1.12Zm11.65-3.22c-.65-.33-1.39-.49-2.21-.49-.89 0-1.68.19-2.38.56-.35.19-.66.42-.93.69v-5.04h-3.02v14.35h3.02v-5.15c0-.64.11-1.17.32-1.59.21-.41.51-.72.89-.92.38-.2.81-.3 1.29-.3.67 0 1.19.2 1.56.6.37.4.55 1.02.55 1.86v5.49h3.02v-5.96c0-1.06-.19-1.92-.56-2.6a3.56 3.56 0 0 0-1.54-1.51Zm8.63-.49c-.83 0-1.64.11-2.44.33-.8.22-1.48.53-2.05.93l1.08 2.11c.37-.3.83-.53 1.36-.71.53-.17 1.08-.26 1.63-.26.81 0 1.41.18 1.81.54.39.36.59.86.59 1.51h-2.4c-1.06 0-1.91.13-2.57.4-.66.26-1.14.63-1.44 1.09-.3.46-.45 1.01-.45 1.62s.15 1.13.46 1.61c.31.48.75.85 1.33 1.13.58.28 1.28.42 2.09.42.92 0 1.66-.17 2.24-.52.4-.24.7-.56.93-.94v1.31h2.82v-5.94c0-1.59-.44-2.75-1.32-3.5-.88-.75-2.11-1.12-3.69-1.12Zm2 7.27c-.18.46-.47.82-.87 1.05-.4.24-.85.36-1.35.36-.53 0-.94-.11-1.25-.34-.3-.23-.45-.53-.45-.92 0-.35.13-.64.4-.87.26-.23.75-.35 1.46-.35h2.07v1.06Zm8.23-5.73v-1.38h-2.88v10.41h3.02v-4.91c0-.99.25-1.72.76-2.2.51-.47 1.18-.71 2-.71h.33c.1 0 .22.02.35.03v-2.79c-.98 0-1.81.19-2.49.57-.44.25-.8.57-1.08.97Zm12.43-.89c-.82-.43-1.74-.65-2.76-.65s-2 .23-2.84.69c-.84.46-1.5 1.09-1.98 1.9-.48.81-.73 1.73-.73 2.78s.24 1.95.73 2.76c.49.81 1.18 1.44 2.08 1.91.9.46 1.94.7 3.12.7.94 0 1.77-.15 2.49-.44a4.74 4.74 0 0 0 1.8-1.25l-1.61-1.74c-.35.34-.73.59-1.15.75-.42.17-.91.25-1.46.25-.62 0-1.16-.11-1.61-.34-.46-.23-.81-.55-1.06-.99-.14-.23-.23-.49-.29-.76h7.86c.01-.13.03-.27.04-.42.01-.15.02-.28.02-.4 0-1.12-.24-2.09-.72-2.89a4.887 4.887 0 0 0-1.94-1.86Zm-5.29 3.8c.05-.32.13-.62.27-.88.22-.41.53-.72.92-.95.39-.23.85-.34 1.36-.34s.97.11 1.35.34c.39.23.69.54.91.94.14.26.22.57.27.89h-5.09Zm12.05 3.03c-.36-.34-.81-.51-1.33-.51s-.96.17-1.32.51c-.37.34-.55.79-.55 1.34s.18 1.01.55 1.36c.37.35.81.53 1.32.53s.97-.18 1.33-.53c.36-.35.54-.81.54-1.36s-.18-1-.54-1.34Z" style="fill:#fd830a"/><path d="M188.38.1c.96-.22 2.03-.06 2.84.53.84.61 1.44 1.57 1.49 2.62.1 1.1-.36 2.22-1.2 2.93-.77.71-1.88.99-2.9.81-.96-.15-1.82-.74-2.35-1.54-.77-1.12-.77-2.71-.03-3.85.49-.73 1.26-1.32 2.15-1.51Z" class="cls-2"/></svg>